<svg id="Layer_1" data-name="Layer 1" xmlns="http://www.w3.org/2000/svg" viewBox="0 0 1080 1080"><defs><style>.cls-1{fill:#255e00;}</style></defs><path class="cls-1" d="M181.35,627.56H97.12L17.59,541,97.12,454.4h84.23L101.43,541Zm153.57,53.28c-59.16,0-105.39-29.38-107.35-85h71.3c2,21.15,15.28,31.34,34.09,31.34,19.59,0,32.12-9.8,32.12-25.86,0-50.93-137.51-23.5-136.73-121,0-52.11,42.71-81.1,100.3-81.1,59.94,0,100.29,29.77,103,82.27H359.21c-1.18-17.63-13.72-28.21-31.74-28.6-16.06-.39-28.2,7.84-28.2,25.07,0,47.8,135.94,26.25,135.94,118.32C435.21,642.45,399.17,680.84,334.92,680.84Zm470.5-276.65h64.64l-105,275.08H700.42ZM978.57,541,898.65,454.4h84.23L1062.41,541l-79.53,86.58H898.65ZM574.78,449.89a6.32,6.32,0,1,0,6.32,6.32A6.31,6.31,0,0,0,574.78,449.89Zm29.86,0a6.32,6.32,0,1,0,6.32,6.32A6.31,6.31,0,0,0,604.64,449.89Zm-19.78-46.81H476.34v275h67V579.37h41.53c70.12,0,101.07-42.31,101.07-87.75C685.93,441.08,652.24,403.08,584.86,403.08ZM623.68,488q-3.28,39.51-35.29,63.06c-6.45,4.73-11.06,3-11.85-4.3-2.78,1.42-5.47,3.17-8.4,4.22-3.81,1.36-7.84,1.36-10.82-1.86-2.82-3.06-2.24-6.71-.64-10.25a7.32,7.32,0,0,0,.22-1.25c-7.57,3.16-14.82,4.2-21.06-2.12-6.45-6.52-4.62-13.68-1-20.68-2.62-.68-5.11-1-7.33-2-4.63-2-5.83-6.7-2.95-10.8a16.44,16.44,0,0,1,2.83-3.12,57.24,57.24,0,0,0,14.79-19.52c3.58-7.5,6.47-15.35,9.29-23.18,4.65-12.9,12.86-22.17,26.36-25.63,16.18-4.14,31,3.34,39.1,19C623.18,461.76,624.79,474.69,623.68,488Z"/></svg>